<svg id="visual" viewBox="0 0 900 100" width="900" height="100" xmlns="http://www.w3.org/2000/svg" xmlns:xlink="http://www.w3.org/1999/xlink" version="1.1"><rect x="0" y="0" width="900" height="100" fill="#f1f8fc"></rect><path d="M0 70L12.5 72C25 74 50 78 75 78.3C100 78.7 125 75.3 150 74.2C175 73 200 74 225 74.7C250 75.3 275 75.7 300 73.5C325 71.3 350 66.7 375 65.7C400 64.7 425 67.3 450 68C475 68.7 500 67.3 525 68.5C550 69.7 575 73.3 600 75.8C625 78.3 650 79.7 675 80.8C700 82 725 83 750 79.8C775 76.7 800 69.3 825 69.7C850 70 875 78 887.5 82L900 86L900 101L887.5 101C875 101 850 101 825 101C800 101 775 101 750 101C725 101 700 101 675 101C650 101 625 101 600 101C575 101 550 101 525 101C500 101 475 101 450 101C425 101 400 101 375 101C350 101 325 101 300 101C275 101 250 101 225 101C200 101 175 101 150 101C125 101 100 101 75 101C50 101 25 101 12.5 101L0 101Z" fill="#e6deb2" stroke-linecap="round" stroke-linejoin="miter"></path></svg>