<svg id="visual" viewBox="0 0 900 100" width="900" height="100" xmlns="http://www.w3.org/2000/svg" xmlns:xlink="http://www.w3.org/1999/xlink" version="1.1"><rect x="0" y="0" width="900" height="100" fill="#f1f8fc"></rect><path d="M0 59L21.5 61.8C43 64.7 86 70.3 128.8 68.2C171.7 66 214.3 56 257.2 54.8C300 53.7 343 61.3 385.8 65.7C428.7 70 471.3 71 514.2 70.8C557 70.7 600 69.3 642.8 63.8C685.7 58.3 728.3 48.7 771.2 44C814 39.3 857 39.7 878.5 39.8L900 40L900 101L878.5 101C857 101 814 101 771.2 101C728.3 101 685.7 101 642.8 101C600 101 557 101 514.2 101C471.3 101 428.7 101 385.8 101C343 101 300 101 257.2 101C214.3 101 171.7 101 128.8 101C86 101 43 101 21.5 101L0 101Z" fill="#5bacdf" stroke-linecap="round" stroke-linejoin="miter"></path></svg>