<svg id="visual" viewBox="0 0 900 1080" width="900" height="1080" xmlns="http://www.w3.org/2000/svg" xmlns:xlink="http://www.w3.org/1999/xlink" version="1.1"><path d="M0 303L21.5 306.7C43 310.3 86 317.7 128.8 316C171.7 314.3 214.3 303.7 257.2 314.5C300 325.3 343 357.7 385.8 368.3C428.7 379 471.3 368 514.2 357.2C557 346.3 600 335.7 642.8 335.7C685.7 335.7 728.3 346.3 771.2 337.3C814 328.3 857 299.7 878.5 285.3L900 271L900 0L878.5 0C857 0 814 0 771.2 0C728.3 0 685.7 0 642.8 0C600 0 557 0 514.2 0C471.3 0 428.7 0 385.8 0C343 0 300 0 257.2 0C214.3 0 171.7 0 128.8 0C86 0 43 0 21.5 0L0 0Z" fill="#f1f8fc"></path><path d="M0 649L21.5 645.3C43 641.7 86 634.3 128.8 629C171.7 623.7 214.3 620.3 257.2 622.2C300 624 343 631 385.8 638.2C428.7 645.3 471.3 652.7 514.2 647.3C557 642 600 624 642.8 616.8C685.7 609.7 728.3 613.3 771.2 613.3C814 613.3 857 609.7 878.5 607.8L900 606L900 269L878.5 283.3C857 297.7 814 326.3 771.2 335.3C728.3 344.3 685.7 333.7 642.8 333.7C600 333.7 557 344.3 514.2 355.2C471.3 366 428.7 377 385.8 366.3C343 355.7 300 323.3 257.2 312.5C214.3 301.7 171.7 312.3 128.8 314C86 315.7 43 308.3 21.5 304.7L0 301Z" fill="#d0eaf9"></path><path d="M0 800L21.5 801.8C43 803.7 86 807.3 128.8 802C171.7 796.7 214.3 782.3 257.2 778.7C300 775 343 782 385.8 789.2C428.7 796.3 471.3 803.7 514.2 798.3C557 793 600 775 642.8 766C685.7 757 728.3 757 771.2 755.2C814 753.3 857 749.7 878.5 747.8L900 746L900 604L878.5 605.8C857 607.7 814 611.3 771.2 611.3C728.3 611.3 685.7 607.7 642.8 614.8C600 622 557 640 514.2 645.3C471.3 650.7 428.7 643.3 385.8 636.2C343 629 300 622 257.2 620.2C214.3 618.3 171.7 621.7 128.8 627C86 632.3 43 639.7 21.5 643.3L0 647Z" fill="#aedbf7"></path><path d="M0 951L21.5 954.7C43 958.3 86 965.7 128.8 962.2C171.7 958.7 214.3 944.3 257.2 942.5C300 940.7 343 951.3 385.8 958.5C428.7 965.7 471.3 969.3 514.2 964C557 958.7 600 944.3 642.8 944.3C685.7 944.3 728.3 958.7 771.2 964C814 969.3 857 965.7 878.5 963.8L900 962L900 744L878.5 745.8C857 747.7 814 751.3 771.2 753.2C728.3 755 685.7 755 642.8 764C600 773 557 791 514.2 796.3C471.3 801.7 428.7 794.3 385.8 787.2C343 780 300 773 257.2 776.7C214.3 780.3 171.7 794.7 128.8 800C86 805.3 43 801.7 21.5 799.8L0 798Z" fill="#8bccf5"></path><path d="M0 1081L21.5 1081C43 1081 86 1081 128.8 1081C171.7 1081 214.3 1081 257.2 1081C300 1081 343 1081 385.8 1081C428.7 1081 471.3 1081 514.2 1081C557 1081 600 1081 642.8 1081C685.7 1081 728.3 1081 771.2 1081C814 1081 857 1081 878.5 1081L900 1081L900 960L878.5 961.8C857 963.7 814 967.3 771.2 962C728.3 956.7 685.7 942.3 642.8 942.3C600 942.3 557 956.7 514.2 962C471.3 967.3 428.7 963.7 385.8 956.5C343 949.3 300 938.7 257.2 940.5C214.3 942.3 171.7 956.7 128.8 960.2C86 963.7 43 956.3 21.5 952.7L0 949Z" fill="#64bcf4"></path></svg>