<svg id="visual" viewBox="0 0 900 1080" width="900" height="1080" xmlns="http://www.w3.org/2000/svg" xmlns:xlink="http://www.w3.org/1999/xlink" version="1.1"><path d="M0 249L25 245.5C50 242 100 235 150 244C200 253 250 278 300 281.5C350 285 400 267 450 267C500 267 550 285 600 285C650 285 700 267 750 258C800 249 850 249 875 249L900 249L900 0L875 0C850 0 800 0 750 0C700 0 650 0 600 0C550 0 500 0 450 0C400 0 350 0 300 0C250 0 200 0 150 0C100 0 50 0 25 0L0 0Z" fill="#9ad1f7"></path><path d="M0 541L25 539.2C50 537.3 100 533.7 150 526.5C200 519.3 250 508.7 300 497.8C350 487 400 476 450 476C500 476 550 487 600 494.3C650 501.7 700 505.3 750 507.2C800 509 850 509 875 509L900 509L900 247L875 247C850 247 800 247 750 256C700 265 650 283 600 283C550 283 500 265 450 265C400 265 350 283 300 279.5C250 276 200 251 150 242C100 233 50 240 25 243.5L0 247Z" fill="#89caf6"></path><path d="M0 649L25 643.7C50 638.3 100 627.7 150 616.8C200 606 250 595 300 587.7C350 580.3 400 576.7 450 582.2C500 587.7 550 602.3 600 611.3C650 620.3 700 623.7 750 621.8C800 620 850 613 875 609.5L900 606L900 507L875 507C850 507 800 507 750 505.2C700 503.3 650 499.7 600 492.3C550 485 500 474 450 474C400 474 350 485 300 495.8C250 506.7 200 517.3 150 524.5C100 531.7 50 535.3 25 537.2L0 539Z" fill="#78c3f5"></path><path d="M0 735L25 726C50 717 100 699 150 686.5C200 674 250 667 300 661.7C350 656.3 400 652.7 450 659.8C500 667 550 685 600 697.7C650 710.3 700 717.7 750 712.3C800 707 850 689 875 680L900 671L900 604L875 607.5C850 611 800 618 750 619.8C700 621.7 650 618.3 600 609.3C550 600.3 500 585.7 450 580.2C400 574.7 350 578.3 300 585.7C250 593 200 604 150 614.8C100 625.7 50 636.3 25 641.7L0 647Z" fill="#64bcf4"></path><path d="M0 865L25 865C50 865 100 865 150 863.2C200 861.3 250 857.7 300 852.3C350 847 400 840 450 841.8C500 843.7 550 854.3 600 859.7C650 865 700 865 750 861.3C800 857.7 850 850.3 875 846.7L900 843L900 669L875 678C850 687 800 705 750 710.3C700 715.7 650 708.3 600 695.7C550 683 500 665 450 657.8C400 650.7 350 654.3 300 659.7C250 665 200 672 150 684.5C100 697 50 715 25 724L0 733Z" fill="#5aabe0"></path><path d="M0 941L25 944.5C50 948 100 955 150 953.2C200 951.3 250 940.7 300 937.2C350 933.7 400 937.3 450 939.2C500 941 550 941 600 942.7C650 944.3 700 947.7 750 945.8C800 944 850 937 875 933.5L900 930L900 841L875 844.7C850 848.3 800 855.7 750 859.3C700 863 650 863 600 857.7C550 852.3 500 841.7 450 839.8C400 838 350 845 300 850.3C250 855.7 200 859.3 150 861.2C100 863 50 863 25 863L0 863Z" fill="#509bcd"></path><path d="M0 1081L25 1081C50 1081 100 1081 150 1081C200 1081 250 1081 300 1081C350 1081 400 1081 450 1081C500 1081 550 1081 600 1081C650 1081 700 1081 750 1081C800 1081 850 1081 875 1081L900 1081L900 928L875 931.5C850 935 800 942 750 943.8C700 945.7 650 942.3 600 940.7C550 939 500 939 450 937.2C400 935.3 350 931.7 300 935.2C250 938.7 200 949.3 150 951.2C100 953 50 946 25 942.5L0 939Z" fill="#468bba"></path></svg>